<svg xmlns="http://www.w3.org/2000/svg" viewBox="0 0 217.27 151.5"><defs><style>.cls-1{fill:#5a5d54;}.cls-2{fill:#82bc47;}.cls-3{fill:#fff;}.cls-4{fill:#71b62b;}.cls-5{fill:#d0d600;}</style></defs><title>larva_simple</title><g id="Capa_2" data-name="Capa 2"><path class="cls-1" d="M4.12,1S63.75,96.32,81,106.56s118.08,30.7,120,32c2.55,1.76,16.72,2.76,15.55,5.26S223,155.52,206,149.49,74.31,119,67.19,108.19,1.24,6.8,1.24,6.8-3-3.12,4.12,1Z"/></g><g id="Capa_1" data-name="Capa 1"><path class="cls-2" d="M26.49,26.75s3-3.37,4.38-3.37,4.25-.38,9.75-2.88-5,14.5-3.25,19.38,3,9.75-1.13,10.12-6.62-3.62-7.12-11.75S26.49,26.75,26.49,26.75Z"/><path class="cls-3" d="M29.37,30.13"/><path class="cls-2" d="M41.83,24.24s1.51-7.25,5.89-6.75,8.12-2.17,10.62,0,1.38,6.77,1.38,6.77S54.21,47.3,46.34,54.49c-6.43,5.88-7.75,0-7.75,0s-2.24-4.23,1.88-8.12c1.64-1.56.37-11.13.37-11.13Z"/><path class="cls-4" d="M46,57.1s6.88-6.22,8.88-9.72S64.24,28,66.74,26.63s5.25-9.25,9.63-4.75S89.87,30,86.24,33.75,71,59.15,54,66.63,46,57.1,46,57.1Z"/><path class="cls-4" d="M54.24,68.53S68,61,73.62,53.63A206,206,0,0,1,90,35.14c1-.76,6.5.08,7.25,1.72s7.63,8.32-.5,13.17S74.37,71.25,61,71.88,54.24,68.53,54.24,68.53Z"/><path class="cls-4" d="M55.49,74.75a45.75,45.75,0,0,0,19.63-6.22c10-5.9,22.37-15.13,22.37-15.13s2.58-1.57,4.13,1.48c4.25,8.37-11.88,19.87-11.88,19.87S78.49,86,64.12,85.75,55.49,74.75,55.49,74.75Z"/><path class="cls-4" d="M66.37,89.5S88,80.88,95.74,74s7.5-9.87,7.5-9.87,3.38-1.63,4,0,3.25,2.62,2,6.5-18.75,31.87-25,34.25-15.12,0-15.12,0S59,97.75,66.37,89.5Z"/><path class="cls-4" d="M115.37,62.38"/><path class="cls-4" d="M84.87,106.5s19-17.27,26.25-34.55c7.13-17,17.75-2.32,13.67,4.8,0,0-9.11,33.81-19.42,37.75,0,0-14.21,5.88-18.3,1.88S84.87,106.5,84.87,106.5Z"/><path class="cls-4" d="M123,75.25"/><path class="cls-4" d="M139.74,60.13"/><path class="cls-4" d="M109.57,113.63S121.24,96.5,123,89.5s3.5-12.75,3.5-12.75,12.83-5.94,15.33,3.94c0,0-8.41,34.29-12.08,37.81-7.17,6.88-18.62,3.38-18.62,3.38S100.28,121.88,109.57,113.63Z"/><path class="cls-4" d="M155.49,63.41"/><path class="cls-4" d="M130.87,119.85s11.25-34.35,13-36.1,12.5,2,12.5,2,7.12,1.55,5.75,5.15-9.63,31-12,31.86-6.88,3.61-10.38,3.36S130.22,124.27,130.87,119.85Z"/><path class="cls-4" d="M166.62,66.88"/><path class="cls-4" d="M151.55,125.37l15.07-33.62s14.5-.25,14,7.13-14,29.12-14,29.12-5.25,4.5-9.88,3.13-7-3-5.19-5"/><path class="cls-4" d="M169.74,77.88"/><path class="cls-4" d="M168.4,129.86s9-12.36,12.23-19.86,5.11-7.12,5.11-7.12,6.25-1.5,6,5.25-1.12,12.66-2.75,14.64-3.58,9.54-8.91,10.2S168.06,135.25,168.4,129.86Z"/><path class="cls-4" d="M185.12,83.29"/><path class="cls-4" d="M180.63,138.25s8.11-9.12,9.86-14,5.25-16.12,7-10,6.38,13.65.88,17.14S187.77,141.75,180.63,138.25Z"/><path class="cls-4" d="M194.49,72"/><path class="cls-4" d="M146.55,12.75"/><path class="cls-5" d="M27.7,29.72s-5,3.5-3.08,7.14a27.12,27.12,0,0,0,4.75,6.39S29.52,29.68,27.7,29.72Z"/><path class="cls-5" d="M39.53,56.23c-1.34,1.11-2.29.65-3.66-.35S38.2,53.4,38.2,53.4"/><path class="cls-5" d="M43.61,64.88S39,67,40.66,67.93a6.56,6.56,0,0,0,4.33.6C45.85,68.38,43.36,66.91,43.61,64.88Z"/><path class="cls-5" d="M22.74,68.66"/><path class="cls-5" d="M54.36,79.75S48.49,82,50.87,83.42a11.69,11.69,0,0,0,5.87,1.25S54.07,82.44,54.36,79.75Z"/><path class="cls-5" d="M52,97"/><path class="cls-5" d="M64,97.91s-3,2.44-.3,4.83a7.8,7.8,0,0,0,5.44,2.14S63.71,99.82,64,97.91Z"/><path class="cls-5" d="M61.12,93.25"/><path class="cls-5" d="M132.36,123.62s.88,5.76,3.88,5.13,5.58-.87,5.58-.87,1.67-.22,1.55-1.73S132.36,123.62,132.36,123.62Z"/><path class="cls-5" d="M152.73,129.56s.26,3.88,2.76,4.16,6.8-.84,6.8-.84,2.06-1.67,1.07-2.77-9,1.76-10.12-.55"/></g></svg>